<svg width="32" height="32" viewBox="0 0 32 32" fill="none" xmlns="http://www.w3.org/2000/svg">
<path d="M22.7125 15.2877L12.7125 5.2877C12.5679 5.15204 12.3879 5.06008 12.1932 5.02248C11.9985 4.98487 11.7972 5.00315 11.6125 5.0752C11.4305 5.1517 11.2752 5.28036 11.1662 5.44497C11.0572 5.60958 10.9994 5.80277 11 6.0002V26.0002C10.9994 26.1976 11.0572 26.3908 11.1662 26.5554C11.2752 26.72 11.4305 26.8487 11.6125 26.9252C11.7359 26.9742 11.8673 26.9996 12 27.0002C12.2655 26.9991 12.5205 26.8962 12.7125 26.7127L22.7125 16.7127C22.9003 16.5231 23.0056 16.267 23.0056 16.0002C23.0056 15.7333 22.9003 15.4773 22.7125 15.2877Z" fill="black"/>
</svg>
