<svg width="149" height="149" viewBox="0 0 149 149" fill="none" xmlns="http://www.w3.org/2000/svg">
<path d="M14.9329 65.4224C14.3333 63.185 14.3332 60.8293 14.9327 58.5919C15.5322 56.3545 16.7101 54.3144 18.348 52.6766L52.4792 18.5454C54.117 16.9074 56.1572 15.7295 58.3946 15.13C60.6319 14.5305 62.9877 14.5306 65.225 15.1303L97.1633 23.6881C97.4957 19.3127 99.019 15.1115 101.568 11.5397L63.101 1.23351C60.3399 0.493762 57.4328 0.493777 54.6718 1.23356C51.9107 1.97335 49.393 3.42684 47.3717 5.44796L5.25137 47.5683C3.23025 49.5897 1.77677 52.1073 1.03699 54.8684C0.297206 57.6294 0.29719 60.5365 1.03694 63.2976L11.7396 103.24C15.2384 100.568 19.4039 98.9088 23.7815 98.4435L14.9329 65.4224Z" fill="#18CDCA"/>
<path d="M124.532 49.453L133.676 83.5778C134.276 85.8155 134.275 88.1711 133.676 90.408C133.076 92.6458 131.898 94.6857 130.26 96.3236L96.1285 130.456C94.4906 132.093 92.4507 133.271 90.2129 133.871C87.976 134.47 85.6197 134.47 83.3827 133.871L50.3616 125.022C49.8963 129.4 48.2371 133.566 45.5649 137.064L85.5075 147.767C88.2683 148.507 91.1756 148.507 93.9364 147.767C96.698 147.027 99.2153 145.574 101.237 143.552L143.357 101.432C145.379 99.4104 146.832 96.8931 147.572 94.1315C148.312 91.3707 148.312 88.4634 147.572 85.7026L136.465 44.2646C133.041 47.0599 128.911 48.8554 124.532 49.453Z" fill="#18CDCA"/>
<path d="M12.6999 108.749C9.99483 111.454 8.15263 114.901 7.40629 118.652C6.65994 122.405 7.04298 126.294 8.50696 129.828C9.97089 133.362 12.4501 136.383 15.6308 138.509C18.8117 140.633 22.5512 141.768 26.3768 141.768C30.2024 141.768 33.942 140.633 37.1228 138.509C40.3036 136.383 42.7828 133.362 44.2467 129.828C45.7107 126.294 46.0937 122.405 45.3473 118.652C44.601 114.901 42.7588 111.454 40.0537 108.749C36.4236 105.127 31.5049 103.093 26.3768 103.093C21.2488 103.093 16.3301 105.127 12.6999 108.749Z" fill="#4F80E1"/>
<path d="M107.552 11.8996C104.847 14.6046 103.004 18.051 102.259 21.8031C101.512 25.5551 101.895 29.4442 103.359 32.9785C104.823 36.5128 107.302 39.5338 110.483 41.6591C113.664 43.7845 117.403 44.9189 121.229 44.9189C125.055 44.9189 128.794 43.7845 131.975 41.6591C135.156 39.5338 137.635 36.5128 139.099 32.9785C140.563 29.4442 140.946 25.5551 140.199 21.8031C139.453 18.051 137.611 14.6046 134.906 11.8996C131.276 8.27754 126.357 6.24341 121.229 6.24341C116.101 6.24341 111.182 8.27754 107.552 11.8996Z" fill="#4F80E1"/>
<path d="M85.6573 125.772C84.8804 125.772 84.1075 125.67 83.3571 125.469L53.1304 117.369C52.1225 111.987 49.5113 107.035 45.6394 103.163C41.7675 99.2917 36.8156 96.6799 31.4335 95.6723L23.3346 65.448C22.9331 63.9405 22.9342 62.3539 23.338 60.847C23.7418 59.34 24.5341 57.9654 25.6356 56.8606L56.66 25.8354C57.7636 24.7317 59.1382 23.9381 60.6458 23.5341C62.1534 23.1302 63.7408 23.1302 65.2483 23.5343L94.6276 31.4065C95.7929 36.7554 98.5465 41.6276 102.528 45.3849C106.509 49.1422 111.533 51.6095 116.94 52.4635L125.269 83.5568C125.67 85.0649 125.67 86.6516 125.265 88.1581C124.862 89.6654 124.069 91.0398 122.967 92.1451L91.9429 123.169C91.1196 123.997 90.1392 124.654 89.0604 125.1C87.9816 125.547 86.825 125.775 85.6573 125.772Z" fill="#4F80E1"/>
</svg>
