<svg width="260" height="132" viewBox="0 0 260 132" fill="none" xmlns="http://www.w3.org/2000/svg">
<path d="M54.6667 94.2168C55.9007 94.2168 57.1227 93.974 58.2628 93.5019C59.4029 93.0297 60.4388 92.3376 61.3114 91.465C62.184 90.5926 62.8762 89.5567 63.3485 88.4166C63.8207 87.2766 64.0638 86.0547 64.0638 84.8207C64.0638 67.3754 70.9939 50.6446 83.3296 38.309C95.665 25.9733 112.396 19.0432 129.841 19.0432C147.286 19.0432 164.018 25.9733 176.353 38.309C188.689 50.6446 195.619 67.3754 195.619 84.8207C195.643 87.2965 196.644 89.6625 198.404 91.4046C200.163 93.1466 202.539 94.1239 205.016 94.1239C207.492 94.1239 209.868 93.1466 211.627 91.4046C213.387 89.6625 214.388 87.2965 214.412 84.8207C214.412 73.7147 212.224 62.7175 207.975 52.4569C203.724 42.1963 197.495 32.8733 189.642 25.0201C181.788 17.167 172.465 10.9376 162.205 6.68756C151.944 2.43748 140.948 0.25 129.841 0.25C118.735 0.25 107.738 2.43748 97.4774 6.68756C87.2169 10.9376 77.8939 17.167 70.0408 25.0201C62.1877 32.8733 55.9582 42.1963 51.7081 52.4569C47.4581 62.7175 45.2706 73.7147 45.2706 84.8207C45.2706 87.3127 46.2606 89.7026 48.0227 91.4647C49.7848 93.2268 52.1747 94.2168 54.6667 94.2168Z" fill="url(#paint0_linear_1_251)"/>
<path d="M250.12 113.01H167.398C173.523 104.89 176.83 94.9927 176.82 84.8208C176.82 72.3599 171.87 60.4094 163.059 51.5982C154.247 42.7869 142.297 37.8369 129.836 37.8369C117.376 37.8369 105.425 42.7869 96.6134 51.5982C87.8023 60.4094 82.8523 72.3599 82.8523 84.8208C82.8523 87.3131 83.8423 89.7032 85.6046 91.4655C87.3669 93.2277 89.7571 94.2178 92.2493 94.2178C94.7419 94.2178 97.1322 93.2277 98.894 91.4655C100.657 89.7032 101.646 87.3131 101.646 84.8208C101.646 79.2452 103.299 73.7949 106.397 69.1589C109.495 64.5229 113.897 60.9096 119.048 58.7757C124.2 56.6419 129.868 56.0835 135.336 57.1712C140.804 58.2588 145.828 60.9436 149.77 64.886C153.712 68.8284 156.397 73.8514 157.486 79.3199C158.573 84.7882 158.015 90.4564 155.881 95.6072C153.747 100.758 150.135 105.162 145.498 108.259C140.862 111.357 135.412 113.01 129.837 113.01H9.5624C8.32052 112.998 7.08849 113.231 5.93756 113.699C4.78662 114.165 3.73962 114.855 2.85706 115.729C1.9745 116.603 1.27388 117.642 0.795752 118.789C0.317618 119.935 0.0714417 121.165 0.0714417 122.407C0.0714417 123.648 0.317618 124.878 0.795752 126.024C1.27388 127.171 1.9745 128.21 2.85706 129.085C3.73962 129.958 4.78662 130.648 5.93756 131.115C7.08849 131.582 8.32052 131.815 9.5624 131.803H250.12C252.596 131.779 254.962 130.778 256.704 129.018C258.446 127.259 259.423 124.883 259.423 122.407C259.423 119.93 258.446 117.554 256.704 115.795C254.962 114.035 252.596 113.034 250.12 113.01Z" fill="url(#paint1_linear_1_251)"/>
<defs>
<linearGradient id="paint0_linear_1_251" x1="45.2706" y1="47.2334" x2="214.412" y2="47.2334" gradientUnits="userSpaceOnUse">
<stop stop-color="#DD1B60"/>
<stop offset="0.243" stop-color="#DE1D5B"/>
<stop offset="0.495" stop-color="#E2254F"/>
<stop offset="0.751" stop-color="#EA313A"/>
<stop offset="1" stop-color="#F4431F"/>
</linearGradient>
<linearGradient id="paint1_linear_1_251" x1="0.0714417" y1="84.8203" x2="259.423" y2="84.8203" gradientUnits="userSpaceOnUse">
<stop stop-color="#DD1B60"/>
<stop offset="0.243" stop-color="#DE1D5B"/>
<stop offset="0.495" stop-color="#E2254F"/>
<stop offset="0.751" stop-color="#EA313A"/>
<stop offset="1" stop-color="#F4431F"/>
</linearGradient>
</defs>
</svg>
