<svg width="115" height="159" viewBox="0 0 115 159" fill="none" xmlns="http://www.w3.org/2000/svg">
<path d="M96.9752 12.9062H89.2342C86.4433 12.9062 84.1815 15.1684 84.1815 17.959V46.0968C84.1815 48.8873 86.4433 51.1495 89.2342 51.1495H96.9752C99.766 51.1495 102.028 48.8873 102.028 46.0968V17.959C102.028 15.1684 99.766 12.9062 96.9752 12.9062Z" fill="#41529F"/>
<path d="M68.0296 156.448V129.792H100.843L72.3822 158.253C72.0255 158.61 71.5709 158.853 71.0761 158.951C70.5813 159.049 70.0685 158.999 69.6024 158.806C69.1364 158.613 68.7382 158.285 68.4582 157.865C68.1783 157.446 68.0291 156.953 68.0296 156.448Z" fill="#41529F"/>
<path d="M102.601 128.135H68.0296V131.33H99.24L102.601 128.135Z" fill="#324293"/>
<path d="M109.708 49.2107L62.4862 1.98416C61.2091 0.713389 59.4808 0 57.6792 0C55.8776 0 54.1492 0.713389 52.8721 1.98416L5.65071 49.2107C2.76912 52.4156 1.07121 56.5101 0.839233 60.8138V69.1324C26.638 88.3267 57.949 98.6689 90.1047 98.6173C98.2824 98.6188 106.447 97.9541 114.517 96.6299V60.8138C114.282 56.5113 112.586 52.4178 109.708 49.2107Z" fill="#41529F"/>
<path d="M90.1062 106.266C57.9506 106.317 26.6396 95.9748 0.840744 76.7812V121.717C0.846579 123.519 1.5647 125.244 2.83835 126.518C4.11199 127.792 5.83773 128.509 7.63893 128.515H107.721C109.522 128.509 111.247 127.791 112.521 126.518C113.795 125.244 114.513 123.518 114.518 121.717V104.279C106.448 105.603 98.2839 106.268 90.1062 106.266Z" fill="#41529F"/>
</svg>
