<svg width="168" height="167" viewBox="0 0 168 167" fill="none" xmlns="http://www.w3.org/2000/svg">
<g filter="url(#filter0_d_1_241)">
<path d="M102.618 36.6908C82.3545 36.6908 41.7649 20.2643 41.7649 0H41.4648C41.4648 16.2186 47.9075 31.7729 59.3756 43.2414C70.8436 54.7099 86.3975 61.1531 102.616 61.1537C112.347 61.1537 121.68 65.0194 128.562 71.9005C135.443 78.7814 139.309 88.1142 139.309 97.8453C139.311 107.576 135.447 116.911 128.567 123.793C121.687 130.676 112.355 134.543 102.624 134.545C92.8921 134.547 83.5585 130.683 76.676 123.803C69.7935 116.923 65.9258 107.591 65.9239 97.8599C65.9237 89.8288 64.3417 81.8765 61.2682 74.4573C58.1947 67.0378 53.6899 60.2963 48.011 54.6178C42.3321 48.9393 35.5905 44.4349 28.1708 41.3618C20.7511 38.2889 12.7988 36.7073 4.76788 36.7077V37.0053C25.0284 37.0053 41.455 77.5774 41.4625 97.8446H41.4587C41.4586 109.94 45.045 121.763 51.7644 131.82C58.4839 141.877 68.0346 149.715 79.2089 154.344C90.3832 158.973 102.679 160.185 114.542 157.825C126.404 155.466 137.301 149.642 145.854 141.09C154.407 132.538 160.232 121.642 162.592 109.779C164.953 97.9164 163.742 85.6207 159.114 74.4459C154.486 63.2713 146.649 53.7199 136.593 46.9995C126.536 40.2792 114.713 36.6918 102.618 36.6908Z" fill="url(#paint0_linear_1_241)"/>
</g>
<defs>
<filter id="filter0_d_1_241" x="0.767883" y="0" width="167" height="167" filterUnits="userSpaceOnUse" color-interpolation-filters="sRGB">
<feFlood flood-opacity="0" result="BackgroundImageFix"/>
<feColorMatrix in="SourceAlpha" type="matrix" values="0 0 0 0 0 0 0 0 0 0 0 0 0 0 0 0 0 0 127 0" result="hardAlpha"/>
<feOffset dy="4"/>
<feGaussianBlur stdDeviation="2"/>
<feComposite in2="hardAlpha" operator="out"/>
<feColorMatrix type="matrix" values="0 0 0 0 0 0 0 0 0 0 0 0 0 0 0 0 0 0 0.25 0"/>
<feBlend mode="normal" in2="BackgroundImageFix" result="effect1_dropShadow_1_241"/>
<feBlend mode="normal" in="SourceGraphic" in2="effect1_dropShadow_1_241" result="shape"/>
</filter>
<linearGradient id="paint0_linear_1_241" x1="131.491" y1="137.535" x2="39.1119" y2="10.653" gradientUnits="userSpaceOnUse">
<stop offset="0.295" stop-color="#E73959"/>
<stop offset="0.384" stop-color="#E73D58"/>
<stop offset="0.477" stop-color="#E74955"/>
<stop offset="0.571" stop-color="#E95E51"/>
<stop offset="0.666" stop-color="#EA7B4B"/>
<stop offset="0.761" stop-color="#EDA044"/>
<stop offset="0.857" stop-color="#EFCE3B"/>
<stop offset="0.868" stop-color="#F0D43A"/>
</linearGradient>
</defs>
</svg>
