<svg width="158" height="159" viewBox="0 0 158 159" fill="none" xmlns="http://www.w3.org/2000/svg">
<path d="M134.226 135.595C149.064 120.701 157.382 100.526 157.353 79.5032C157.337 78.2057 156.811 76.9664 155.887 76.0546C154.964 75.142 153.719 74.631 152.422 74.631C151.123 74.631 149.878 75.142 148.955 76.0546C148.032 76.9664 147.505 78.2057 147.49 79.5032C147.51 97.9269 140.217 115.606 127.213 128.657C120.9 135.138 113.353 140.29 105.016 143.808C96.6798 147.325 87.7234 149.137 78.6757 149.137C69.6278 149.137 60.6715 147.325 52.3353 143.808C43.9991 140.29 36.4518 135.138 30.1386 128.657C17.1515 115.594 9.86193 97.9212 9.86193 79.5004C9.86193 61.0791 17.1515 43.4068 30.1386 30.3429C36.415 23.9114 43.9057 18.7898 52.1763 15.275C60.447 11.7602 69.3331 9.92216 78.3195 9.86747C80.2381 9.92756 82.0574 10.735 83.3896 12.1174C84.7217 13.4997 85.4608 15.3479 85.4493 17.2675C85.4385 19.1872 84.6778 21.0265 83.3298 22.3934C81.9819 23.7602 80.1532 24.5463 78.2338 24.5841C78.0561 24.5845 77.8783 24.5943 77.702 24.6136C64.0301 25.0539 51.0577 30.7625 41.4973 40.5458C31.4007 50.7096 25.7342 64.4544 25.7342 78.7807C25.7342 93.1073 31.4007 106.852 41.4973 117.016C46.4298 122.068 52.323 126.083 58.8302 128.825C65.3374 131.566 72.3274 132.978 79.3882 132.978C86.4489 132.978 93.4391 131.566 99.9464 128.825C106.453 126.083 112.346 122.068 117.279 117.016C127.391 106.862 133.06 93.1109 133.04 78.7807C133.061 76.5238 132.634 74.2842 131.785 72.1928C130.935 70.1018 129.68 68.1994 128.091 66.5959C126.502 64.9924 124.611 63.7196 122.528 62.851C120.444 61.9824 118.21 61.5352 115.952 61.5352C113.694 61.5352 111.46 61.9824 109.376 62.851C107.293 63.7196 105.402 64.9924 103.813 66.5959C102.224 68.1994 100.969 70.1018 100.119 72.1928C99.2699 74.2842 98.8432 76.5238 98.864 78.7807C98.864 78.9246 98.8734 79.0599 98.8849 79.1981C98.8734 79.3363 98.864 79.4745 98.864 79.6155C98.8964 83.5507 97.7586 87.4067 95.5953 90.6949C93.4326 93.9824 90.3416 96.5531 86.7152 98.0817C83.0887 99.6095 79.0895 100.026 75.2263 99.2785C71.3624 98.53 67.8081 96.6516 65.014 93.8802C62.2198 91.1087 60.3119 87.5701 59.5323 83.7126C58.7526 79.8552 59.1364 75.8531 60.6349 72.2144C62.1335 68.5751 64.6792 65.4633 67.949 63.2735C71.2189 61.0837 75.0658 59.9145 79.001 59.9144C79.6537 59.9223 80.3014 59.8005 80.9067 59.5563C81.5119 59.312 82.0625 58.95 82.5267 58.4912C82.9909 58.0325 83.3601 57.4862 83.6112 56.8839C83.8631 56.2817 83.9927 55.6355 83.9927 54.9828C83.9927 54.3302 83.8631 53.684 83.6112 53.0817C83.3601 52.4794 82.9909 51.9331 82.5267 51.4744C82.0625 51.0157 81.5119 50.6537 80.9067 50.4094C80.3014 50.1651 79.6537 50.0433 79.001 50.0513C73.1608 50.0836 67.4608 51.8452 62.6205 55.1134C57.7801 58.3818 54.0162 63.0105 51.8037 68.4156C49.5912 73.8207 49.0291 79.7602 50.1884 85.4845C51.3477 91.2088 54.1764 96.4609 58.3177 100.58C62.4589 104.698 67.7272 107.497 73.458 108.625C79.1881 109.752 85.1247 109.157 90.5172 106.914C95.9098 104.672 100.518 100.883 103.759 96.0241C107.001 91.1656 108.73 85.4557 108.73 79.6155C108.73 79.4716 108.721 79.3363 108.709 79.1981C108.721 79.0599 108.73 78.9217 108.73 78.7807C108.711 77.8199 108.883 76.8649 109.238 75.9711C109.592 75.078 110.122 74.264 110.794 73.5782C111.467 72.8916 112.27 72.3461 113.156 71.974C114.042 71.6019 114.994 71.4102 115.955 71.4102C116.916 71.4102 117.868 71.6019 118.754 71.974C119.64 72.3461 120.443 72.8916 121.116 73.5782C121.788 74.264 122.318 75.078 122.672 75.9711C123.026 76.8649 123.199 77.8199 123.18 78.7807C123.193 90.5128 118.549 101.77 110.267 110.08C106.252 114.205 101.451 117.483 96.148 119.722C90.8447 121.961 85.1463 123.114 79.3896 123.114C73.6337 123.114 67.9355 121.961 62.6321 119.722C57.3288 117.483 52.5279 114.205 48.5127 110.08C40.2425 101.763 35.6004 90.51 35.6004 78.7807C35.6004 67.0514 40.2425 55.7988 48.5127 47.4813C52.531 43.3614 57.3321 40.0862 62.6341 37.8479C67.936 35.6096 73.6315 34.4534 79.3867 34.4473C79.8293 34.446 80.2698 34.3851 80.6965 34.2659C84.8951 33.622 88.7073 31.4507 91.4032 28.1685C94.0991 24.8863 95.488 20.7243 95.3038 16.4811C95.1196 12.2377 93.3743 8.21185 90.4042 5.17575C87.4341 2.13962 83.4479 0.307021 79.2097 0.0295069C79.0327 0.0102233 78.8542 0.000373583 78.6757 0C78.5764 0 78.4778 0 78.3785 0C78.3295 0 78.282 0 78.2345 0C78.187 0 78.1381 0.00575344 78.0906 0.00719279C67.8381 0.0878222 57.703 2.19709 48.2696 6.2134C38.8361 10.2297 30.291 16.0736 23.1268 23.4082C8.31377 38.3182 0 58.4825 0 79.5004C0 100.518 8.31377 120.682 23.1268 135.592C30.3572 143.001 38.9967 148.889 48.5367 152.909C58.0768 156.929 68.3247 159 78.6771 159C89.0297 159 99.2771 156.929 108.818 152.909C118.358 148.889 126.997 143.001 134.227 135.592L134.226 135.595Z" fill="url(#paint0_linear_1_238)"/>
<defs>
<linearGradient id="paint0_linear_1_238" x1="22.8162" y1="135.309" x2="122.81" y2="37.4522" gradientUnits="userSpaceOnUse">
<stop stop-color="#41287B"/>
<stop offset="0.123" stop-color="#462779"/>
<stop offset="0.284" stop-color="#572775"/>
<stop offset="0.465" stop-color="#72266E"/>
<stop offset="0.663" stop-color="#982565"/>
<stop offset="0.87" stop-color="#C82459"/>
<stop offset="0.99" stop-color="#E72452"/>
</linearGradient>
</defs>
</svg>
