<svg width="298" height="50" viewBox="0 0 298 50" fill="none" xmlns="http://www.w3.org/2000/svg">
<path d="M25.8594 37.2461L35.7031 43.4961C36.9726 44.2969 38.5351 43.1055 38.1641 41.6407L35.3125 30.4297C35.2354 30.119 35.2476 29.7928 35.3479 29.4887C35.4481 29.1846 35.6321 28.915 35.8789 28.711L44.707 21.3477C45.8594 20.3907 45.2734 18.4571 43.7695 18.3594L32.2461 17.6172C31.9317 17.5989 31.6294 17.4895 31.3762 17.3022C31.123 17.1149 30.9298 16.8578 30.8203 16.5625L26.5234 5.74224C26.4097 5.42955 26.2025 5.15943 25.9299 4.96855C25.6574 4.77768 25.3327 4.67529 25 4.67529C24.6673 4.67529 24.3426 4.77768 24.07 4.96855C23.7975 5.15943 23.5903 5.42955 23.4766 5.74224L19.1797 16.5625C19.0702 16.8578 18.877 17.1149 18.6238 17.3022C18.3706 17.4895 18.0683 17.5989 17.7539 17.6172L6.23046 18.3594C4.72655 18.4571 4.14062 20.3907 5.29296 21.3477L14.1211 28.711C14.3678 28.915 14.5519 29.1846 14.6521 29.4887C14.7523 29.7928 14.7646 30.119 14.6875 30.4297L12.0508 40.8204C11.6016 42.5782 13.4766 44.004 14.9805 43.0469L24.1406 37.2461C24.3975 37.0828 24.6956 36.9961 25 36.9961C25.3044 36.9961 25.6025 37.0828 25.8594 37.2461Z" fill="#E13C5A" stroke="#E13C5A" stroke-width="3.125" stroke-linecap="round" stroke-linejoin="round"/>
<path d="M87.8594 37.2461L97.7031 43.4961C98.9727 44.2969 100.535 43.1055 100.164 41.6407L97.3125 30.4297C97.2354 30.119 97.2477 29.7928 97.3479 29.4887C97.4481 29.1846 97.6322 28.915 97.8789 28.711L106.707 21.3477C107.859 20.3907 107.273 18.4571 105.77 18.3594L94.2461 17.6172C93.9317 17.5989 93.6294 17.4895 93.3762 17.3022C93.123 17.1149 92.9298 16.8578 92.8203 16.5625L88.5234 5.74224C88.4097 5.42955 88.2025 5.15943 87.9299 4.96855C87.6574 4.77768 87.3327 4.67529 87 4.67529C86.6673 4.67529 86.3426 4.77768 86.07 4.96855C85.7975 5.15943 85.5903 5.42955 85.4766 5.74224L81.1797 16.5625C81.0702 16.8578 80.877 17.1149 80.6238 17.3022C80.3706 17.4895 80.0683 17.5989 79.7539 17.6172L68.2305 18.3594C66.7266 18.4571 66.1406 20.3907 67.293 21.3477L76.1211 28.711C76.3678 28.915 76.5519 29.1846 76.6521 29.4887C76.7523 29.7928 76.7646 30.119 76.6875 30.4297L74.0508 40.8204C73.6016 42.5782 75.4766 44.004 76.9805 43.0469L86.1406 37.2461C86.3975 37.0828 86.6956 36.9961 87 36.9961C87.3044 36.9961 87.6025 37.0828 87.8594 37.2461Z" fill="#E13C5A" stroke="#E13C5A" stroke-width="3.125" stroke-linecap="round" stroke-linejoin="round"/>
<path d="M149.859 37.2461L159.703 43.4961C160.973 44.2969 162.535 43.1055 162.164 41.6407L159.312 30.4297C159.235 30.119 159.248 29.7928 159.348 29.4887C159.448 29.1846 159.632 28.915 159.879 28.711L168.707 21.3477C169.859 20.3907 169.273 18.4571 167.77 18.3594L156.246 17.6172C155.932 17.5989 155.629 17.4895 155.376 17.3022C155.123 17.1149 154.93 16.8578 154.82 16.5625L150.523 5.74224C150.41 5.42955 150.202 5.15943 149.93 4.96855C149.657 4.77768 149.333 4.67529 149 4.67529C148.667 4.67529 148.343 4.77768 148.07 4.96855C147.798 5.15943 147.59 5.42955 147.477 5.74224L143.18 16.5625C143.07 16.8578 142.877 17.1149 142.624 17.3022C142.371 17.4895 142.068 17.5989 141.754 17.6172L130.23 18.3594C128.727 18.4571 128.141 20.3907 129.293 21.3477L138.121 28.711C138.368 28.915 138.552 29.1846 138.652 29.4887C138.752 29.7928 138.765 30.119 138.687 30.4297L136.051 40.8204C135.602 42.5782 137.477 44.004 138.98 43.0469L148.141 37.2461C148.397 37.0828 148.696 36.9961 149 36.9961C149.304 36.9961 149.603 37.0828 149.859 37.2461Z" fill="#E13C5A" stroke="#E13C5A" stroke-width="3.125" stroke-linecap="round" stroke-linejoin="round"/>
<path d="M211.859 37.2461L221.703 43.4961C222.973 44.2969 224.535 43.1055 224.164 41.6407L221.312 30.4297C221.235 30.119 221.248 29.7928 221.348 29.4887C221.448 29.1846 221.632 28.915 221.879 28.711L230.707 21.3477C231.859 20.3907 231.273 18.4571 229.77 18.3594L218.246 17.6172C217.932 17.5989 217.629 17.4895 217.376 17.3022C217.123 17.1149 216.93 16.8578 216.82 16.5625L212.523 5.74224C212.41 5.42955 212.202 5.15943 211.93 4.96855C211.657 4.77768 211.333 4.67529 211 4.67529C210.667 4.67529 210.343 4.77768 210.07 4.96855C209.798 5.15943 209.59 5.42955 209.477 5.74224L205.18 16.5625C205.07 16.8578 204.877 17.1149 204.624 17.3022C204.371 17.4895 204.068 17.5989 203.754 17.6172L192.23 18.3594C190.727 18.4571 190.141 20.3907 191.293 21.3477L200.121 28.711C200.368 28.915 200.552 29.1846 200.652 29.4887C200.752 29.7928 200.765 30.119 200.687 30.4297L198.051 40.8204C197.602 42.5782 199.477 44.004 200.98 43.0469L210.141 37.2461C210.397 37.0828 210.696 36.9961 211 36.9961C211.304 36.9961 211.603 37.0828 211.859 37.2461Z" fill="#E13C5A" stroke="#E13C5A" stroke-width="3.125" stroke-linecap="round" stroke-linejoin="round"/>
<path d="M273.859 37.2461L283.703 43.4961C284.973 44.2969 286.535 43.1055 286.164 41.6407L283.312 30.4297C283.235 30.119 283.248 29.7928 283.348 29.4887C283.448 29.1846 283.632 28.915 283.879 28.711L292.707 21.3477C293.859 20.3907 293.273 18.4571 291.77 18.3594L280.246 17.6172C279.932 17.5989 279.629 17.4895 279.376 17.3022C279.123 17.1149 278.93 16.8578 278.82 16.5625L274.523 5.74224C274.41 5.42955 274.202 5.15943 273.93 4.96855C273.657 4.77768 273.333 4.67529 273 4.67529C272.667 4.67529 272.343 4.77768 272.07 4.96855C271.798 5.15943 271.59 5.42955 271.477 5.74224L267.18 16.5625C267.07 16.8578 266.877 17.1149 266.624 17.3022C266.371 17.4895 266.068 17.5989 265.754 17.6172L254.23 18.3594C252.727 18.4571 252.141 20.3907 253.293 21.3477L262.121 28.711C262.368 28.915 262.552 29.1846 262.652 29.4887C262.752 29.7928 262.765 30.119 262.687 30.4297L260.051 40.8204C259.602 42.5782 261.477 44.004 262.98 43.0469L272.141 37.2461C272.397 37.0828 272.696 36.9961 273 36.9961C273.304 36.9961 273.603 37.0828 273.859 37.2461V37.2461Z" stroke="#E13C5A" stroke-width="3.125" stroke-linecap="round" stroke-linejoin="round"/>
</svg>
